<mxfile host="app.diagrams.net" modified="2023-08-25T14:07:54.050Z" agent="Mozilla/5.0 (X11; Linux x86_64; rv:109.0) Gecko/20100101 Firefox/112.0" version="21.6.9" etag="Hsxc8JVyXCHg-BUpVRCx" type="github">
  <diagram name="PÃ¡gina-1" id="vyyPWZjzh-mqohxhE3kP">
    <mxGraphModel>
      <root>
        <mxCell id="0" />
        <mxCell id="1" parent="0" />
      </root>
    </mxGraphModel>
  </diagram>
</mxfile>
